<svg xmlns="http://www.w3.org/2000/svg" width="1022" height="490" viewBox="0 0 1022 490" fill="none">
  <path d="M0.5 0H947H993.386C993.386 15.3125 1000.41 22.9688 1007.44 30.625C1014.47 38.2813 1021.5 45.9375 1021.5 61.25C1021.5 76.5625 1014.47 84.2188 1007.44 91.875C1000.41 99.5313 993.386 107.188 993.386 122.5C993.386 137.812 1000.41 145.469 1007.44 153.125C1014.47 160.781 1021.5 168.438 1021.5 183.75C1021.5 199.062 1014.47 206.719 1007.44 214.375C1000.41 222.031 993.386 229.688 993.386 245C993.386 260.312 1000.41 267.969 1007.44 275.625C1014.47 283.281 1021.5 290.938 1021.5 306.25C1021.5 321.562 1014.47 329.219 1007.44 336.875C1000.41 344.531 993.386 352.188 993.386 367.5C993.386 382.812 1000.41 390.469 1007.44 398.125C1014.47 405.781 1021.5 413.438 1021.5 428.75C1021.5 444.062 1014.47 451.719 1007.44 459.375C1000.41 467.031 993.386 474.688 993.386 490H947H946H0.5V0Z" fill="#002733"/>
</svg>