<svg xmlns="http://www.w3.org/2000/svg" width="360" height="444" viewBox="0 0 360 444" fill="none">
  <path d="M-130 0.5V390.001V421.265C-114.687 421.265 -107.031 426.824 -99.375 432.383C-91.7188 437.941 -84.0625 443.5 -68.75 443.5C-53.4375 443.5 -45.7812 437.941 -38.125 432.383C-30.4688 426.824 -22.8125 421.265 -7.5 421.265C7.81252 421.265 15.4688 426.824 23.125 432.383C30.7813 437.941 38.4375 443.5 53.75 443.5C69.0625 443.5 76.7188 437.941 84.375 432.383C92.0313 426.824 99.6875 421.265 115 421.265C130.312 421.265 137.969 426.824 145.625 432.383C153.281 437.941 160.938 443.5 176.25 443.5C191.562 443.5 199.219 437.941 206.875 432.383C214.531 426.824 222.188 421.265 237.5 421.265C252.812 421.265 260.469 426.824 268.125 432.383C275.781 437.941 283.438 443.5 298.75 443.5C314.062 443.5 321.719 437.941 329.375 432.383C337.031 426.824 344.688 421.265 360 421.265V390V0.5H-130Z" fill="#002733"/>
</svg>