<svg xmlns="http://www.w3.org/2000/svg" width="768" height="332" viewBox="0 0 768 332" fill="none">
  <path d="M0 278V0H768V278H874V309.265C858.688 309.265 851.031 314.824 843.375 320.383C835.719 325.941 828.062 331.5 812.75 331.5C797.438 331.5 789.781 325.941 782.125 320.383C774.469 314.824 766.812 309.265 751.5 309.265C736.188 309.265 728.531 314.824 720.875 320.383C713.219 325.941 705.562 331.5 690.25 331.5C674.938 331.5 667.281 325.941 659.625 320.383C651.969 314.824 644.312 309.265 629 309.265C613.688 309.265 606.031 314.824 598.375 320.383C590.719 325.941 583.062 331.5 567.75 331.5C552.438 331.5 544.781 325.941 537.125 320.383C529.469 314.824 521.812 309.265 506.5 309.265C491.188 309.265 483.531 314.824 475.875 320.383C468.219 325.941 460.562 331.5 445.25 331.5C429.938 331.5 422.281 325.941 414.625 320.383C406.969 314.824 399.312 309.265 384 309.265C368.688 309.265 361.031 314.824 353.375 320.383C345.719 325.941 338.062 331.5 322.75 331.5C307.438 331.5 299.781 325.941 292.125 320.383C284.469 314.824 276.812 309.265 261.5 309.265C246.188 309.265 238.531 314.824 230.875 320.383C223.219 325.941 215.562 331.5 200.25 331.5C184.938 331.5 177.281 325.941 169.625 320.383C161.969 314.824 154.312 309.265 139 309.265C123.688 309.265 116.031 314.824 108.375 320.383C100.719 325.941 93.0625 331.5 77.75 331.5C62.4375 331.5 54.7813 325.941 47.125 320.383C39.4688 314.824 31.8125 309.265 16.5 309.265C1.1875 309.265 -6.46875 314.824 -14.125 320.383C-21.7812 325.941 -29.4375 331.5 -44.75 331.5C-60.0625 331.5 -67.7188 325.941 -75.375 320.383C-83.0312 314.824 -90.6875 309.265 -106 309.265V278.001L0 278Z" fill="#002733"/>
</svg>