<svg xmlns="http://www.w3.org/2000/svg" width="1022" height="490" viewBox="0 0 1022 490" fill="none">
  <path d="M993.386 245C993.386 275.625 1021.5 275.625 1021.5 306.25C1021.5 336.875 993.386 336.875 993.386 367.5C993.386 398.125 1021.5 398.125 1021.5 428.75C1021.5 459.375 993.386 459.375 993.386 490H953.856L953.855 0H993.386C993.386 30.625 1021.5 30.625 1021.5 61.25C1021.5 91.875 993.386 91.875 993.386 122.5C993.386 153.125 1021.5 153.125 1021.5 183.75C1021.5 214.375 993.386 214.375 993.386 245Z" fill="#002733"/>
  <path d="M0.5 0H953.855V490H0.5V0Z" fill="#002733"/>
</svg>