<svg width="354" height="378" viewBox="0 0 354 378" fill="none" xmlns="http://www.w3.org/2000/svg">
<path d="M176.66 0.140137L176.66 365.002C150.568 365.002 150.568 377.44 124.475 377.44C98.3826 377.44 98.3826 365.002 72.2902 365.002C46.1976 365.002 46.1976 377.44 20.1051 377.44C-5.98735 377.44 -5.98735 365.002 -32.0798 365.002L-32.0798 0.140128L176.66 0.140137Z" fill="#94E1B0"/>
<path d="M385.4 0.140137L385.4 365.002C359.308 365.002 359.308 377.44 333.215 377.44C307.123 377.44 307.123 365.002 281.03 365.002C254.938 365.002 254.938 377.44 228.845 377.44C202.753 377.44 202.753 365.002 176.66 365.002L176.66 0.140128L385.4 0.140137Z" fill="#94E1B0"/>
</svg>
