<svg xmlns="http://www.w3.org/2000/svg" width="1198" height="348" viewBox="0 0 1198 348" fill="none">
  <path d="M0.259766 174.44H1177C1177 205.188 1197.32 205.188 1197.32 235.935C1197.32 266.682 1177 266.682 1177 297.43C1177 328.178 1197.32 328.178 1197.32 358.925C1197.32 389.673 1177 389.673 1177 420.42L0.261065 418.594L0.259766 174.44Z" fill="#94E1B0"/>
  <path d="M0.259766 -71.5399H1177C1177 -40.7924 1197.32 -40.7924 1197.32 -10.0449C1197.32 20.7026 1177 20.7026 1177 51.4501C1177 82.1976 1197.32 82.1976 1197.32 112.945C1197.32 143.693 1177 143.693 1177 174.44H0.259766V-71.5399Z" fill="#94E1B0"/>
</svg>