<svg xmlns="http://www.w3.org/2000/svg" width="360" height="444" viewBox="0 0 360 444" fill="none">
  <path d="M115 421.265C84.375 421.265 84.375 443.5 53.75 443.5C23.125 443.5 23.125 421.265 -7.5 421.265C-38.125 421.265 -38.125 443.5 -68.75 443.5C-99.375 443.5 -99.375 421.265 -130 421.265V390.001L360 390V421.265C329.375 421.265 329.375 443.5 298.75 443.5C268.125 443.5 268.125 421.265 237.5 421.265C206.875 421.265 206.875 443.5 176.25 443.5C145.625 443.5 145.625 421.265 115 421.265Z" fill="#002733"/>
  <path d="M360 0.5V390H-130V0.5H360Z" fill="#002733"/>
</svg>